<?xml version="1.0" standalone="no"?><!DOCTYPE svg PUBLIC "-//W3C//DTD SVG 1.1//EN" "http://www.w3.org/Graphics/SVG/1.1/DTD/svg11.dtd"><svg t="1534340088265" class="icon" style="" viewBox="0 0 1024 1024" version="1.1" xmlns="http://www.w3.org/2000/svg" p-id="2570" xmlns:xlink="http://www.w3.org/1999/xlink" width="48" height="48"><defs><style type="text/css"></style></defs><path d="M512 0C229.234472 0 0 229.226146 0 512 0 794.765528 229.234472 1024 512 1024S1024 794.765528 1024 512C1024 229.226146 794.765528 0 512 0zM228.776585 836.066862c-63.163317 0-114.371642-51.208325-114.371642-114.371642 0-63.163317 51.208325-114.371642 114.371642-114.371642s114.371642 51.208325 114.371642 114.371642C343.148228 784.866862 291.939902 836.066862 228.776585 836.066862zM649.332553 746.454374c-0.532813 5.702764-1.21548 11.347252-1.989724 16.975089-7.259577 30.203837-33.950179 52.898341-66.376846 52.898341-38.104455 0-68.990959-34.158309-68.990959-72.204488 0-5.877593 0.81587-11.463805 2.206179-16.775285C512.424585 596.251057 410.199415 489.480325 280.97561 480.46413l-6.343805-0.740943c-0.341333-0.01665-0.674341-0.024976-1.015675-0.041626-5.453008-0.216455-10.930992-0.732618-16.142569-2.331057-27.722927-8.475057-47.91987-34.366439-47.91987-65.078114 0-37.604943 30.245463-68.091837 67.550699-68.091837 0.299707 0 0.591089 0.041626 0.890797 0.049951 0.041626-0.01665 0.083252-0.033301 0.124878-0.049951C483.827512 346.32013 649.956943 513.665041 649.956943 719.880325c0 7.717463-0.341333 15.34335-0.824195 22.94426C649.19935 744.03174 649.324228 745.222244 649.332553 746.454374zM903.417756 683.124553c-10.856065 45.172553-25.80813 104.114992-74.310764 104.114992-56.994341 0-48.236228-66.085463-48.236228-122.996553 0-8.791415 1.223805-17.149919 3.29678-25.100488-2.639089-196.108488-169.834146-387.812943-363.137041-401.291447l-35.806699-5.827642c-42.117203-7.492683-111.715902-3.255154-111.715902-49.193626 0-56.253398 50.234276-81.861724 106.038114-81.861724 0.449561 0 0.882472 0.058276 1.332033 0.066602 0.058276-0.01665 0.124878-0.049951 0.183154-0.066602 307.724488 3.180228 526.252748 208.546341 526.252748 517.028423 0 11.538732-0.507837 22.952585-1.23213 34.316488 0.108228 1.806569 0.291382 3.596488 0.308033 5.428033C905.607285 666.257691 904.59161 674.716098 903.417756 683.124553z" p-id="2571"></path></svg>