<?xml version="1.0" standalone="no"?><!DOCTYPE svg PUBLIC "-//W3C//DTD SVG 1.1//EN" "http://www.w3.org/Graphics/SVG/1.1/DTD/svg11.dtd"><svg t="1534337257037" class="icon" style="" viewBox="0 0 1024 1024" version="1.1" xmlns="http://www.w3.org/2000/svg" p-id="2362" xmlns:xlink="http://www.w3.org/1999/xlink" width="48" height="48"><defs><style type="text/css"></style></defs><path d="M512 1024C229.230592 1024 0 794.769408 0 512S229.230592 0 512 0s512 229.230592 512 512-229.230592 512-512 512zM241.553408 637.24544v186.67008l28.66176-3.30752c16.535552-1.836032 30.866432-5.511168 34.90816-8.818688 5.879808-5.511168 6.2464-19.10784 6.2464-181.89312V454.252544h30.49984c32.704512 0 39.318528-2.939904 39.318528-17.270784 0-9.921536-17.6384-46.667776-34.173952-71.6544l-11.758592-17.6384h-33.071104c-31.601664 0-32.704512-0.367616-23.885824-5.879808 5.144576-3.30752 19.10784-16.167936 31.601664-27.926528 21.312512-20.57728 23.150592-21.680128 38.58432-20.57728l16.167936 1.101824 8.818688 32.336896 9.186304 31.96928h24.620032c18.740224 0 26.457088-1.83808 33.071104-6.982656l8.452096-6.981632-6.61504-21.312512c-3.674112-12.126208-7.71584-23.8848-8.451072-26.089472-1.46944-3.675136 7.716864-4.77696 38.21568-4.77696 47.035392 0 50.341888-1.837056 54.016-32.336896l2.573312-19.10784H363.549696l5.512192-14.698496c8.818688-22.04672 4.041728-25.721856-36.378624-25.721856-27.927552 0-32.704512 1.102848-34.541568 6.2464-14.698496 46.667776-43.727872 86.720512-77.534208 106.195968l-15.80032 9.55392v27.559936c0 31.60064-1.46944 31.234048 37.848064 11.758592 12.126208-5.878784 23.150592-9.921536 24.620032-8.818688 8.452096 5.144576 44.095488 83.0464 44.095488 95.906816 0 0.735232-15.80032 1.46944-34.90816 1.46944h-34.909184v186.67008zM637.30688 817.302528c4.042752 2.93888 19.47648 4.409344 45.198336 4.409344 35.2768 0 41.15456-1.101824 59.160576-9.921536 14.698496-7.71584 22.41536-14.697472 30.866432-28.29312l11.024384-18.006016 1.101824-194.38592 1.102848-194.019328H384.494592l2.572288 21.312512c4.409344 37.113856-12.4928 33.806336 166.827008 33.806336h158.00832V755.2l-8.08448 5.512192c-6.2464 4.409344-17.6384 5.878784-42.99264 5.878784h-34.541568l2.572288 23.150592c1.837056 14.33088 4.77696 24.619008 8.451072 27.558912zM495.099904 346.218496c0 26.82368 0.36864 27.558912 8.452096 25.35424 22.41536-6.981632 60.998656-31.234048 85.251072-54.016 26.457088-24.620032 27.191296-24.987648 47.034368-24.987648h19.843072l5.878784 21.312512c2.939904 11.390976 6.61504 26.457088 8.08448 33.071104l2.572288 11.758592h25.35424c14.331904 0 29.0304-1.837056 33.072128-3.674112 9.18528-5.144576 9.18528-22.782976-0.36864-43.727872-4.040704-8.818688-7.348224-16.535552-7.348224-17.270784 0-0.734208 18.740224-1.46944 41.890816-1.46944 48.503808 0 50.341888-1.102848 52.914176-31.601664L819.2 241.124352h-86.720512c-47.7696 0-86.720512-0.734208-86.720512-1.837056 0-0.735232 2.572288-7.349248 6.2464-14.33088 9.55392-20.578304 3.675136-24.252416-37.480448-24.252416h-34.173952l-2.204672 12.86144c-5.879808 30.866432-40.787968 79.003648-70.920192 97.743872-11.758592 7.349248-12.126208 8.08448-12.126208 34.90816z m-113.911808 264.57088V748.9536l102.15424-1.46944c97.00864-1.101824 102.520832-1.837056 117.219328-9.55392 19.475456-10.289152 29.396992-20.57728 38.21568-39.318528 6.2464-13.228032 6.981632-25.35424 6.981632-120.159232V472.624128h-264.57088v138.165248z m187.404288 75.696128c-6.981632 5.879808-15.80032 6.61504-64.672768 6.61504h-56.589312v-62.468096h133.388288l-2.204672 24.619008c-1.470464 19.47648-3.675136 26.090496-9.921536 31.234048zM579.615744 551.6288v27.559936H447.330304v-55.118848h132.28544v27.558912z" p-id="2363"></path></svg>